# xmcd
#
# Track frame offsets: 
#        182
#        9832
#        19887
#        33680
#        45082
#        54835
#        65022
#        76085
#        86715
#        100130
#        112080
#        123362
#        132250
#        143322
#        154212
#        170847
#        182257
#        192652
#        208512
#        218382
#        232415
#        245187
#        257887
#        270862
#        286957
#        299370
#        312360
#        326740
#
# Disc length: 4533 seconds
#
# Revision: 3
# Processed by: cddbd v1.5.2PL0 Copyright (c) Steve Scherf et al.
# Submitted via: ExactAudioCopyFreeDBPlugin 1.0
#
DISCID=9211b31c
DTITLE=Various Artist - Hi Records:The R&B Sessions and The Soul Years
DYEAR=1999
DGENRE=Rhythm and Blues
TTITLE0=Willie Mitchell and The Four Kings - That Driving Beat
TTITLE1=Don Bryant - It Ain't Easy
TTITLE2=Don Bryant - Clear Days and Stormy Nights
TTITLE3=Don Bryant - Sure Looks Good to Me
TTITLE4=1 and 1 (Don Bryant and Marion Brittnam) - I Will Be Free
TTITLE5=Willie Mitchell - The Champion, Part 1
TTITLE6=Norm West - Hey Little Girl
TTITLE7=Janet and The Jays - Love What You're Doing to Me
TTITLE8=Janet and The Jays - Without a Reason
TTITLE9=Gene "Bowlegs" Miller - The Goodest Man
TTITLE10=James Fry - Mama's Boy
TTITLE11=James Fry - I've Got Enough
TTITLE12=The "5" Royales - Help Yourself
TTITLE13=The "5" Royales - Roll with the Punch
TTITLE14=Al Green - Strong as Death (Sweet as Love)
TTITLE15=Syl Johnson - Back for a Taste of Your Love
TTITLE16=O.V. Wright - I Don't Do Windows
TTITLE17=Bobo Mr. Soul - She's My Woman
TTITLE18=Willie Mitchell - Teenie's Dream
TTITLE19=Quiet Elegance - After You
TTITLE20=Quiet Elegance - You Got My Mind Messed Up
TTITLE21=Otis Clay - Trying to Live My Life Without You
TTITLE22=Ann Peebles - I've Been There Before
TTITLE23=Phillip Mitchell - Turning Over the Ground
TTITLE24=The Masqueraders - Wake Up Fool
TTITLE25=Joint Venture - When the Battle is Over
TTITLE26=George Jackson - Let Them Know You Care
TTITLE27=George Jackson - Aretha, Sing One for Me
EXTD=
EXTT0=
EXTT1=
EXTT2=
EXTT3=
EXTT4=
EXTT5=
EXTT6=
EXTT7=
EXTT8=
EXTT9=
EXTT10=
EXTT11=
EXTT12=
EXTT13=
EXTT14=
EXTT15=
EXTT16=
EXTT17=
EXTT18=
EXTT19=
EXTT20=
EXTT21=
EXTT22=
EXTT23=
EXTT24=
EXTT25=
EXTT26=
EXTT27=
PLAYORDER=
